<?xml version="1.0" encoding="UTF-8"?>
<svg id="Layer_2" data-name="Layer 2" xmlns="http://www.w3.org/2000/svg" xmlns:xlink="http://www.w3.org/1999/xlink" viewBox="0 0 1585.51 1901.26">
  <defs>
    <linearGradient id="linear-gradient" x1="1283.7" y1="418.24" x2="1335.45" y2="1900.11" gradientUnits="userSpaceOnUse">
      <stop offset="0" stop-color="#fed619"/>
      <stop offset="1" stop-color="#f39426"/>
    </linearGradient>
    <linearGradient id="linear-gradient-2" x1="196.58" y1="163.46" x2="552.17" y2="1836.4" gradientUnits="userSpaceOnUse">
      <stop offset="0" stop-color="#4839da"/>
      <stop offset="1" stop-color="#563fdf"/>
    </linearGradient>
  </defs>
  <g id="Layer_1-2" data-name="Layer 1">
    <g>
      <path d="M790.74,751.37l-460.87,1092.33c-19.24,45.6-71.78,67.01-117.41,47.84l-157.12-66c-45.79-19.24-67.24-72.01-47.86-117.74L708.25,54.7c30.97-73.05,134.56-72.9,165.31.24l91.38,217.35c9.4,22.36,9.35,47.57-.15,69.89l-174.06,409.17Z" style="fill: #4861da;"/>
      <path d="M1029.75,427.11l549.97,1298.41c15.9,37.54-2.1,80.82-39.93,96.02l-185.37,74.46c-36.75,14.76-78.59-2.56-94.14-38.99-78.35-183.6-165.25-222.73-234.76-247.98-36.02-13.09-74.08-19.64-112.41-19.64h-246.75c-52,0-87.26-52.91-67.24-100.9l63.37-151.89c11.32-27.13,37.84-44.8,67.24-44.8h177.51c52.02,0,87.28-52.96,67.21-100.95l-133.63-319.64M840.84,871.2l188.91-444.09" style="fill: #fdb011;"/>
      <path d="M1029.75,427.11l548.7,1295.41c16.11,38.03-1.04,81.96-38.66,99.02h0s-185.37,74.46-185.37,74.46h0c-43.25,15.35-89.83-12.26-97.13-57.57l-227.54-1411.32Z" style="fill: url(#linear-gradient);"/>
      <path d="M7.48,1707.8s-35.41,76.38,47.86,117.74c83.27,41.35,157.12,66,157.12,66,0,0,74.98,34.86,117.41-47.84C372.3,1760.99,708.25,54.7,708.25,54.7L7.48,1707.8Z" style="fill: url(#linear-gradient-2);"/>
    </g>
  </g>
</svg>