<?xml version="1.0" encoding="UTF-8"?>
<svg id="Layer_2" data-name="Layer 2" xmlns="http://www.w3.org/2000/svg" viewBox="0 0 1920 1920">
  <g id="Layer_1-2" data-name="Layer 1">
    <g>
      <circle cx="960" cy="960" r="960" style="fill: #ff6154;"/>
      <path d="M1065.26,459.72c12.48-29.34,12.55-62.49.19-91.89h0c-40.43-96.16-176.61-96.36-217.33-.32l-399.27,941.87c-25.48,60.11,2.72,129.49,62.91,154.78l.85.36c59.99,25.2,129.06-2.94,154.36-62.89l289.89-687.08,108.4-254.82Z" style="fill: #fff;"/>
      <path d="M990.79,795.69l64.01,153.1c26.18,62.62-19.82,131.71-87.69,131.71h-21.08c-38.36,0-72.95,23.05-87.72,58.45l-4.77,11.42c-26.12,62.61,19.88,131.65,87.72,131.65h89.88c36.94,0,73.57,7.37,107.38,22.25,37.43,16.48,79.88,45.75,120.11,124.27,22.42,43.77,74.44,63.32,120.08,44.98l42.17-16.94c49.36-19.83,72.84-76.29,52.09-125.27l-354.26-836.36" style="fill: #fff;"/>
    </g>
    <line x1="990.79" y1="795.69" x2="1118.71" y2="494.97" style="fill: #ff6154;"/>
  </g>
</svg>