<?xml version="1.0" encoding="UTF-8"?>
<svg id="Layer_2" data-name="Layer 2" xmlns="http://www.w3.org/2000/svg" xmlns:xlink="http://www.w3.org/1999/xlink" viewBox="0 0 1485.16 464.65">
  <defs>
    <linearGradient id="linear-gradient" x1="312.49" y1="101.81" x2="325.09" y2="462.55" gradientUnits="userSpaceOnUse">
      <stop offset="0" stop-color="#fed619"/>
      <stop offset="1" stop-color="#f39426"/>
    </linearGradient>
    <linearGradient id="linear-gradient-2" x1="47.85" y1="39.79" x2="134.42" y2="447.04" gradientUnits="userSpaceOnUse">
      <stop offset="0" stop-color="#4839da"/>
      <stop offset="1" stop-color="#563fdf"/>
    </linearGradient>
  </defs>
  <g id="Layer_1-2" data-name="Layer 1">
    <g>
      <g>
        <path d="M580.56,263.57c15.8,16.02,23.71,39.1,23.71,69.28v128.23h-34.41v-123.07c0-21.7-5.23-38.31-15.68-49.82-10.45-11.51-24.73-17.27-42.82-17.27s-32.95,5.95-43.78,17.86c-10.84,11.91-16.25,29.25-16.25,52.01v120.29h-34.79v-217.56h34.79v30.97c6.88-11.12,16.25-19.71,28.1-25.81,11.85-6.09,24.91-9.13,39.19-9.13,25.48,0,46.13,8.01,61.94,24.02Z" style="fill: #fff;"/>
        <path d="M661.23,292.94c8.66-16.8,20.71-29.84,36.13-39.1,15.42-9.26,33.07-13.89,52.95-13.89,25.74,0,46.96,6.49,63.66,19.45,16.69,12.97,27.72,30.97,33.07,53.99h-37.47c-3.57-13.23-10.51-23.68-20.84-31.36-10.32-7.67-23.13-11.51-38.42-11.51-19.88,0-35.94,7.08-48.17,21.24-12.23,14.16-18.35,34.21-18.35,60.15s6.12,46.45,18.35,60.74c12.23,14.29,28.29,21.44,48.17,21.44,15.29,0,28.04-3.7,38.23-11.12,10.19-7.41,17.21-18,21.03-31.76h37.47c-5.61,22.23-16.82,40.03-33.65,53.4-16.82,13.37-37.85,20.05-63.08,20.05-19.88,0-37.54-4.63-52.95-13.9-15.42-9.26-27.47-22.36-36.13-39.3-8.67-16.93-13-36.79-13-59.55s4.33-42.14,13-58.96Z" style="fill: #fff;"/>
        <path d="M1040.12,250.07c12.74,7.02,22.75,17.54,30.02,31.56,7.26,14.03,10.9,31.1,10.9,51.21v128.23h-34.41v-123.07c0-21.7-5.23-38.31-15.68-49.82-10.45-11.51-24.72-17.27-42.82-17.27s-32.95,5.95-43.78,17.86c-10.84,11.91-16.25,29.25-16.25,52.01v120.29h-34.79V167.29h34.79v107.19c6.88-11.12,16.37-19.71,28.48-25.81,12.1-6.09,25.68-9.13,40.72-9.13,15.8,0,30.07,3.51,42.82,10.52Z" style="fill: #fff;"/>
        <path d="M1176.04,450.75c-15.93-9.26-28.42-22.43-37.47-39.5-9.05-17.07-13.57-36.85-13.57-59.35s4.65-41.88,13.96-58.96c9.3-17.07,21.98-30.17,38.04-39.3,16.06-9.13,34.03-13.7,53.91-13.7s37.85,4.57,53.91,13.7c16.06,9.13,28.73,22.17,38.04,39.11,9.3,16.94,13.96,36.66,13.96,59.15s-4.78,42.28-14.34,59.35c-9.56,17.07-22.5,30.24-38.81,39.5-16.31,9.27-34.41,13.9-54.29,13.9s-37.41-4.63-53.34-13.9ZM1264.55,423.76c10.96-6.09,19.82-15.22,26.57-27.39,6.75-12.17,10.13-27,10.13-44.46s-3.31-32.29-9.94-44.46c-6.63-12.17-15.29-21.24-26-27.19-10.71-5.95-22.31-8.93-34.79-8.93s-24.41,2.98-34.98,8.93c-10.58,5.95-19.06,15.02-25.43,27.19-6.37,12.18-9.56,27-9.56,44.46s3.12,32.69,9.37,44.86c6.24,12.18,14.59,21.24,25.04,27.2,10.45,5.95,21.92,8.93,34.41,8.93s24.21-3.04,35.17-9.13Z" style="fill: #fff;"/>
        <path d="M1443.68,249.87c11.34-6.88,25.17-10.32,41.48-10.32v37.32h-9.18c-39,0-58.5,21.97-58.5,65.9v118.31h-34.79v-217.56h34.79v35.33c6.12-12.44,14.85-22.1,26.19-28.98Z" style="fill: #fff;"/>
      </g>
      <g>
        <path d="M192.49,182.91l-112.19,265.91c-4.68,11.1-17.47,16.31-28.58,11.65l-38.25-16.07c-11.15-4.68-16.37-17.53-11.65-28.66L172.41,13.32c7.54-17.78,32.76-17.75,40.24.06l22.25,52.91c2.29,5.44,2.28,11.58-.04,17.01l-42.37,99.61Z" style="fill: #4861da;"/>
        <path d="M250.67,103.97l133.88,316.07c3.87,9.14-.51,19.67-9.72,23.37l-45.12,18.13c-8.95,3.59-19.13-.62-22.92-9.49-19.07-44.69-40.23-54.22-57.15-60.37-8.77-3.19-18.03-4.78-27.36-4.78h-60.07c-12.66,0-21.24-12.88-16.37-24.56l15.43-36.98c2.76-6.6,9.21-10.91,16.37-10.91h43.21c12.66,0,21.25-12.89,16.36-24.58l-32.53-77.81M204.69,212.08l45.99-108.11" style="fill: #fdb011;"/>
        <path d="M250.67,103.97l133.57,315.34c3.92,9.26-.25,19.95-9.41,24.1h0s-45.12,18.13-45.12,18.13h0c-10.53,3.74-21.87-2.98-23.65-14.01l-55.39-343.56Z" style="fill: url(#linear-gradient);"/>
        <path d="M1.82,415.73s-8.62,18.59,11.65,28.66c20.27,10.07,38.25,16.07,38.25,16.07,0,0,18.25,8.49,28.58-11.65C90.63,428.68,172.41,13.32,172.41,13.32L1.82,415.73Z" style="fill: url(#linear-gradient-2);"/>
      </g>
    </g>
  </g>
</svg>