<?xml version="1.0" encoding="UTF-8"?>
<svg id="Layer_2" data-name="Layer 2" xmlns="http://www.w3.org/2000/svg" viewBox="0 0 3866 1184.8">
  <g id="Layer_1-2" data-name="Layer 1">
    <g>
      <g>
        <path d="M1557.17,671.57c40.33,40.88,60.5,99.81,60.5,176.82v327.29h-87.83v-314.12c0-55.38-13.34-97.78-40.01-127.16-26.68-29.38-63.11-44.08-109.29-44.08s-84.09,15.2-111.73,45.6c-27.66,30.4-41.47,74.65-41.47,132.74v307.02h-88.8v-555.27h88.8v79.03c17.57-28.37,41.47-50.32,71.73-65.86,30.25-15.53,63.58-23.3,100.02-23.3,65.05,0,117.74,20.44,158.09,61.3Z" style="fill: #fff;"/>
        <path d="M1763.07,746.55c22.11-42.89,52.85-76.15,92.22-99.81,39.35-23.64,84.41-35.46,135.16-35.46,65.7,0,119.86,16.56,162.48,49.65,42.6,33.11,70.75,79.04,84.41,137.8h-95.63c-9.12-33.77-26.84-60.45-53.18-80.05-26.35-19.59-59.04-29.39-98.07-29.39-50.75,0-91.73,18.08-122.96,54.21-31.23,36.15-46.84,87.32-46.84,153.51s15.61,118.55,46.84,155.03c31.23,36.48,72.21,54.72,122.96,54.72,39.03,0,71.55-9.45,97.58-28.37,26.01-18.9,43.91-45.93,53.67-81.06h95.63c-14.32,56.74-42.94,102.18-85.87,136.29-42.94,34.12-96.61,51.17-161.01,51.17-50.75,0-95.8-11.81-135.16-35.47-39.37-23.64-70.11-57.07-92.22-100.31-22.12-43.22-33.18-93.89-33.18-151.99s11.06-107.57,33.18-150.47Z" style="fill: #fff;"/>
        <path d="M2730.12,637.12c32.52,17.91,58.06,44.76,76.61,80.56,18.54,35.81,27.81,79.38,27.81,130.71v327.29h-87.83v-314.12c0-55.38-13.34-97.78-40.01-127.16-26.68-29.38-63.1-44.08-109.29-44.08s-84.09,15.2-111.73,45.6c-27.66,30.4-41.48,74.65-41.48,132.74v307.02h-88.8V425.85h88.8v273.58c17.57-28.37,41.79-50.32,72.7-65.86,30.89-15.53,65.53-23.3,103.93-23.3,40.32,0,76.75,8.96,109.29,26.85Z" style="fill: #fff;"/>
        <path d="M3077.03,1149.33c-40.66-23.64-72.55-57.25-95.63-100.82-23.1-43.57-34.64-94.06-34.64-151.48s11.86-106.9,35.62-150.47c23.74-43.57,56.11-77.01,97.1-100.31,40.99-23.3,86.85-34.96,137.59-34.96s96.6,11.65,137.59,34.96c40.99,23.31,73.34,56.59,97.1,99.81,23.74,43.24,35.62,93.57,35.62,150.98s-12.2,107.91-36.6,151.48c-24.39,43.57-57.42,77.18-99.05,100.82-41.64,23.65-87.83,35.47-138.57,35.47s-95.48-11.81-136.13-35.47ZM3302.94,1080.43c27.96-15.53,50.57-38.84,67.82-69.92,17.23-31.06,25.86-68.9,25.86-113.49s-8.46-82.41-25.37-113.49c-16.92-31.06-39.03-54.21-66.35-69.41-27.32-15.2-56.93-22.8-88.8-22.8s-62.3,7.6-89.29,22.8c-27,15.2-48.64,38.35-64.89,69.41-16.27,31.08-24.39,68.9-24.39,113.49s7.96,83.44,23.9,114.5c15.93,31.08,37.24,54.21,63.92,69.41,26.67,15.2,55.94,22.8,87.83,22.8s61.8-7.76,89.78-23.3Z" style="fill: #fff;"/>
        <path d="M3760.12,636.61c28.94-17.56,64.24-26.34,105.88-26.34v95.25h-23.42c-99.53,0-149.3,56.08-149.3,168.2v301.96h-88.8v-555.27h88.8v90.18c15.61-31.74,37.89-56.39,66.85-73.97Z" style="fill: #fff;"/>
      </g>
      <path d="M625.79,164.12c12.48-29.34,12.55-62.49.19-91.89h0c-40.43-96.16-176.61-96.36-217.33-.32L9.39,1013.78c-25.48,60.11,2.72,129.49,62.91,154.78l.85.36c59.99,25.2,129.06-2.94,154.36-62.89l289.89-687.08,108.4-254.82Z" style="fill: #513ddd;"/>
      <path d="M551.32,500.09l64.01,153.1c26.18,62.62-19.82,131.71-87.69,131.71h-21.08c-38.36,0-72.95,23.05-87.72,58.45l-4.77,11.42c-26.12,62.61,19.88,131.65,87.72,131.65h89.88c36.94,0,73.57,7.37,107.38,22.25,37.43,16.48,79.88,45.75,120.11,124.27,22.42,43.77,74.44,63.32,120.08,44.98l42.17-16.94c49.36-19.83,72.84-76.29,52.09-125.27L679.24,199.37" style="fill: #fdb011;"/>
    </g>
  </g>
</svg>