<?xml version="1.0" encoding="UTF-8"?>
<!DOCTYPE svg PUBLIC "-//W3C//DTD SVG 1.1//EN" "http://www.w3.org/Graphics/SVG/1.1/DTD/svg11.dtd">
<!-- Creator: CorelDRAW -->
<svg xmlns="http://www.w3.org/2000/svg" xml:space="preserve" width="86.6986mm" height="86.6986mm" version="1.1" style="shape-rendering:geometricPrecision; text-rendering:geometricPrecision; image-rendering:optimizeQuality; fill-rule:evenodd; clip-rule:evenodd"
viewBox="0 0 8669.86 8669.86"
 xmlns:xlink="http://www.w3.org/1999/xlink"
 xmlns:xodm="http://www.corel.com/coreldraw/odm/2003">
 <defs>
  <style type="text/css">
   <![CDATA[
    .fil2 {fill:none}
    .fil1 {fill:#FF9D00}
    .fil0 {fill:#FFAE2F}
   ]]>
  </style>
    <clipPath id="id0">
     <path d="M4646.86 6802.01c-5.38,-141.55 -0.35,-293.54 -0.35,-436.26l0 -2177.96c0,-270.31 -11.6,-460.31 142.19,-680.38 70.78,-101.28 94.33,-99.66 131.54,-141.83 28,-31.73 84.92,-65.26 128.49,-89.27 231.87,-127.79 480.51,-99.88 729.48,-37.03 135.59,34.24 256.63,104.5 360.98,181.09 20.2,14.82 47.23,31.96 64.39,46.98l136.51 132.06c12.16,13.28 11.04,16.07 25.92,29.72 18.66,17.1 33.87,37.15 51.21,59.79 184.61,241.02 267.36,523.88 244.37,832.44 -20.29,272.33 -127.53,535.96 -303.42,731.87 -25.44,28.34 -49.23,58.92 -78.04,83.9 -21.36,18.53 -37.63,30.5 -57.96,53.21 -31.9,35.63 -75.28,68.77 -112.49,105.38 -39.14,38.51 -65.08,76.83 -105.82,111.95 -42.74,36.84 -155.43,201.03 -187.07,248.58 -319.87,480.69 -278.79,901.6 -281.17,1464.09 -0.31,72.6 -0.53,145.2 -0.71,217.8 -0.17,67.03 -7.36,142.37 37.62,179.21 48.85,40.01 109.11,35.52 157.92,-1.17l121.74 -96.08c221.92,-177.88 450.1,-349.47 670.39,-529.79 20.63,-16.88 40.66,-34.02 61.91,-49.26 36.53,-26.2 93.88,-62.45 107.89,-110.31 17.64,-60.31 -31.33,-119.24 -81.76,-126.84 -43.69,-6.58 -383.38,-4.5 -438.3,-0.65 43.42,-306.22 105,-503.62 299.98,-750.37l291.39 -292.35c9.63,-10.62 19.01,-15.36 28.99,-26.59 64.95,-73.1 127.81,-145.68 184.17,-228.38 95.25,-139.78 180.91,-306.17 233.32,-471.14 78.89,-248.27 124.96,-543 83.45,-822.49 -44.76,-301.35 -122.87,-509.19 -274.62,-772.4 -43.08,-74.72 -97.76,-137.2 -149.37,-202.85 -39.78,-50.59 -124,-135.09 -170.03,-177.52 -12.88,-11.87 -15.82,-15.26 -29.86,-30.28 -33.25,-35.59 -120.45,-101.53 -162.32,-129.75 -251.82,-169.73 -528.4,-291.81 -839.4,-333.16 -155.61,-20.7 -295.05,-13.8 -450.43,-17.91 3.21,-2.92 3,-2.91 8.74,-6.35 3.85,-2.31 5.39,-2.94 9.45,-5.01 98.1,-49.92 177.05,-121.98 189.86,-244.56 7.68,-73.51 -3.09,-139.89 -35.25,-194.35 -25.12,-42.53 -46.42,-63.77 -81.1,-94.98 -10.47,-9.42 -19.76,-16.04 -35.31,-25.09 -110.01,-64.07 -283.15,-43.18 -421.25,-43.18l-931.43 0c-135.33,0 -320.94,-19.2 -425.06,44 -155.43,94.35 -212.12,313.19 -77.86,469.25 64.97,75.54 83.85,56.6 137.84,100.12 -149.52,4.04 -317.37,-9.29 -464.39,8.31 -153.67,18.39 -247.72,35.99 -395.27,77.96 -108.49,30.85 -245.17,86.28 -333.76,138.72 -100.13,59.26 -197.52,114.57 -283.76,188.82 -20,17.22 -43.8,34.39 -64.24,51.76 -38.29,32.53 -91.01,77.76 -122.49,113.94l-111.03 125.21c-17.62,23.15 -34.62,47.22 -51.12,69.5 -101.25,136.73 -191.12,294.76 -251.32,457.58 -44.91,121.49 -78.27,239.51 -98.97,378.62 -42.39,284.74 -12.25,585.53 67.08,844.97 71.4,233.5 181.79,431.34 329.14,615.92 35.63,44.64 73.93,84 110.61,125.92 55.41,63.33 205.57,184.2 268.37,259.84 107.77,129.82 183.91,221.6 249.66,403.54 27.92,77.25 94.94,314.02 83.14,391.27 -84.48,19.39 -329.56,-13.4 -431.44,4.96 -52.27,9.42 -99.74,61.32 -83.8,128.34 9.43,39.68 77.46,85.17 107.93,110.29 18.96,15.63 39.1,30.42 59.83,46.85l121.36 96.26c10.79,8.29 19.16,15.48 31.21,24.54l153.65 119.84c10.3,8.38 16.22,14.57 27.81,23.04l397.52 311.55c67.74,51.1 128.94,119.09 217.06,50.8 50.51,-39.15 39.59,-101.99 39.53,-178.12 -0.25,-291.35 11.47,-799.46 -29.28,-1059.07 -14.27,-90.9 -64.23,-264.93 -99.2,-336.67 -49.5,-101.55 -93.36,-196.82 -152.3,-283.33l-111.81 -156.94c-9.02,-11.38 -17.17,-19.02 -25.8,-29.7 -97.19,-120.37 -211.54,-223.9 -325.38,-328.01 -19.8,-18.1 -38.45,-34.97 -56.68,-54.63 -185.88,-200.37 -316.37,-479.99 -331.25,-758.09 -10.99,-205.17 12.11,-376.42 85.96,-560.57 23.91,-59.6 43.62,-92.36 72.08,-145.79 48.31,-90.7 119.19,-173.36 187.76,-247.82 25.61,-27.8 59.18,-51.31 86.87,-75.33 42.84,-37.16 21.77,-24.73 88.04,-73.99 22.94,-17.05 39.88,-31 64.49,-46.84 171.41,-110.26 431.21,-200.18 681.43,-189.98 163.9,6.68 290.75,44.13 412.26,129.97 65.82,46.5 116.78,96.37 169.37,159.53 68.6,82.4 119.86,180.69 144.29,291.5 29.29,132.91 19.92,275.7 19.92,415.41 0,134.86 6.22,2565.63 -1.76,2612.01 -55.34,13.88 -182.6,-7.03 -249.31,5.29 -59.64,11.02 -117.26,72.98 -102.36,146.14 9.93,48.81 169.06,239.15 214.89,299.03 32.94,43.05 334.73,445.96 362.85,471.5 12.76,11.59 19.17,22.4 34.33,30.68 29.84,16.31 62.08,28.57 101.08,24.16 74.44,-8.42 111.8,-66.18 145.45,-108.78l111.18 -143.63c37.01,-49.2 72.2,-94.11 110.38,-144.54l139.28 -180.4c48.83,-58.36 93.35,-122.83 140.5,-183.89 46.38,-60.06 41.8,-127.97 -10.37,-181.34 -26.14,-26.75 -51.18,-31.68 -96.9,-32.17 -86.43,-0.94 -175.31,-1.08 -261.68,0.16z"/>
    </clipPath>
 </defs>
 <g id="Layer_x0020_1">
  <metadata id="CorelCorpID_0Corel-Layer"/>
  <g id="_2824494696272">
   <path class="fil0" d="M4646.86 6802.01c-5.38,-141.55 -0.35,-293.54 -0.35,-436.26l0 -2177.96c0,-270.31 -11.6,-460.31 142.19,-680.38 70.78,-101.28 94.33,-99.66 131.54,-141.83 28,-31.73 84.92,-65.26 128.49,-89.27 231.87,-127.79 480.51,-99.88 729.48,-37.03 135.59,34.24 256.63,104.5 360.98,181.09 20.2,14.82 47.23,31.96 64.39,46.98l136.51 132.06c12.16,13.28 11.04,16.07 25.92,29.72 18.66,17.1 33.87,37.15 51.21,59.79 184.61,241.02 267.36,523.88 244.37,832.44 -20.29,272.33 -127.53,535.96 -303.42,731.87 -25.44,28.34 -49.23,58.92 -78.04,83.9 -21.36,18.53 -37.63,30.5 -57.96,53.21 -31.9,35.63 -75.28,68.77 -112.49,105.38 -39.14,38.51 -65.08,76.83 -105.82,111.95 -42.74,36.84 -155.43,201.03 -187.07,248.58 -319.87,480.69 -278.79,901.6 -281.17,1464.09 -0.31,72.6 -0.53,145.2 -0.71,217.8 -0.17,67.03 -7.36,142.37 37.62,179.21 48.85,40.01 109.11,35.52 157.92,-1.17l121.74 -96.08c221.92,-177.88 450.1,-349.47 670.39,-529.79 20.63,-16.88 40.66,-34.02 61.91,-49.26 36.53,-26.2 93.88,-62.45 107.89,-110.31 17.64,-60.31 -31.33,-119.24 -81.76,-126.84 -43.69,-6.58 -383.38,-4.5 -438.3,-0.65 43.42,-306.22 105,-503.62 299.98,-750.37l291.39 -292.35c9.63,-10.62 19.01,-15.36 28.99,-26.59 64.95,-73.1 127.81,-145.68 184.17,-228.38 95.25,-139.78 180.91,-306.17 233.32,-471.14 78.89,-248.27 124.96,-543 83.45,-822.49 -44.76,-301.35 -122.87,-509.19 -274.62,-772.4 -43.08,-74.72 -97.76,-137.2 -149.37,-202.85 -39.78,-50.59 -124,-135.09 -170.03,-177.52 -12.88,-11.87 -15.82,-15.26 -29.86,-30.28 -33.25,-35.59 -120.45,-101.53 -162.32,-129.75 -251.82,-169.73 -528.4,-291.81 -839.4,-333.16 -155.61,-20.7 -295.05,-13.8 -450.43,-17.91 3.21,-2.92 3,-2.91 8.74,-6.35 3.85,-2.31 5.39,-2.94 9.45,-5.01 98.1,-49.92 177.05,-121.98 189.86,-244.56 7.68,-73.51 -3.09,-139.89 -35.25,-194.35 -25.12,-42.53 -46.42,-63.77 -81.1,-94.98 -10.47,-9.42 -19.76,-16.04 -35.31,-25.09 -110.01,-64.07 -283.15,-43.18 -421.25,-43.18l-931.43 0c-135.33,0 -320.94,-19.2 -425.06,44 -155.43,94.35 -212.12,313.19 -77.86,469.25 64.97,75.54 83.85,56.6 137.84,100.12 -149.52,4.04 -317.37,-9.29 -464.39,8.31 -153.67,18.39 -247.72,35.99 -395.27,77.96 -108.49,30.85 -245.17,86.28 -333.76,138.72 -100.13,59.26 -197.52,114.57 -283.76,188.82 -20,17.22 -43.8,34.39 -64.24,51.76 -38.29,32.53 -91.01,77.76 -122.49,113.94l-111.03 125.21c-17.62,23.15 -34.62,47.22 -51.12,69.5 -101.25,136.73 -191.12,294.76 -251.32,457.58 -44.91,121.49 -78.27,239.51 -98.97,378.62 -42.39,284.74 -12.25,585.53 67.08,844.97 71.4,233.5 181.79,431.34 329.14,615.92 35.63,44.64 73.93,84 110.61,125.92 55.41,63.33 205.57,184.2 268.37,259.84 107.77,129.82 183.91,221.6 249.66,403.54 27.92,77.25 94.94,314.02 83.14,391.27 -84.48,19.39 -329.56,-13.4 -431.44,4.96 -52.27,9.42 -99.74,61.32 -83.8,128.34 9.43,39.68 77.46,85.17 107.93,110.29 18.96,15.63 39.1,30.42 59.83,46.85l121.36 96.26c10.79,8.29 19.16,15.48 31.21,24.54l153.65 119.84c10.3,8.38 16.22,14.57 27.81,23.04l397.52 311.55c67.74,51.1 128.94,119.09 217.06,50.8 50.51,-39.15 39.59,-101.99 39.53,-178.12 -0.25,-291.35 11.47,-799.46 -29.28,-1059.07 -14.27,-90.9 -64.23,-264.93 -99.2,-336.67 -49.5,-101.55 -93.36,-196.82 -152.3,-283.33l-111.81 -156.94c-9.02,-11.38 -17.17,-19.02 -25.8,-29.7 -97.19,-120.37 -211.54,-223.9 -325.38,-328.01 -19.8,-18.1 -38.45,-34.97 -56.68,-54.63 -185.88,-200.37 -316.37,-479.99 -331.25,-758.09 -10.99,-205.17 12.11,-376.42 85.96,-560.57 23.91,-59.6 43.62,-92.36 72.08,-145.79 48.31,-90.7 119.19,-173.36 187.76,-247.82 25.61,-27.8 59.18,-51.31 86.87,-75.33 42.84,-37.16 21.77,-24.73 88.04,-73.99 22.94,-17.05 39.88,-31 64.49,-46.84 171.41,-110.26 431.21,-200.18 681.43,-189.98 163.9,6.68 290.75,44.13 412.26,129.97 65.82,46.5 116.78,96.37 169.37,159.53 68.6,82.4 119.86,180.69 144.29,291.5 29.29,132.91 19.92,275.7 19.92,415.41 0,134.86 6.22,2565.63 -1.76,2612.01 -55.34,13.88 -182.6,-7.03 -249.31,5.29 -59.64,11.02 -117.26,72.98 -102.36,146.14 9.93,48.81 169.06,239.15 214.89,299.03 32.94,43.05 334.73,445.96 362.85,471.5 12.76,11.59 19.17,22.4 34.33,30.68 29.84,16.31 62.08,28.57 101.08,24.16 74.44,-8.42 111.8,-66.18 145.45,-108.78l111.18 -143.63c37.01,-49.2 72.2,-94.11 110.38,-144.54l139.28 -180.4c48.83,-58.36 93.35,-122.83 140.5,-183.89 46.38,-60.06 41.8,-127.97 -10.37,-181.34 -26.14,-26.75 -51.18,-31.68 -96.9,-32.17 -86.43,-0.94 -175.31,-1.08 -261.68,0.16z"/>
   <g style="clip-path:url(#id0)">
    <g>
     <polygon id="_1" class="fil1" points="8493.11,8565.05 266.5,8565.05 266.5,4130.39 8493.11,4130.39 "/>
    </g>
   </g>
   <path class="fil2" d="M4646.86 6802.01c-5.38,-141.55 -0.35,-293.54 -0.35,-436.26l0 -2177.96c0,-270.31 -11.6,-460.31 142.19,-680.38 70.78,-101.28 94.33,-99.66 131.54,-141.83 28,-31.73 84.92,-65.26 128.49,-89.27 231.87,-127.79 480.51,-99.88 729.48,-37.03 135.59,34.24 256.63,104.5 360.98,181.09 20.2,14.82 47.23,31.96 64.39,46.98l136.51 132.06c12.16,13.28 11.04,16.07 25.92,29.72 18.66,17.1 33.87,37.15 51.21,59.79 184.61,241.02 267.36,523.88 244.37,832.44 -20.29,272.33 -127.53,535.96 -303.42,731.87 -25.44,28.34 -49.23,58.92 -78.04,83.9 -21.36,18.53 -37.63,30.5 -57.96,53.21 -31.9,35.63 -75.28,68.77 -112.49,105.38 -39.14,38.51 -65.08,76.83 -105.82,111.95 -42.74,36.84 -155.43,201.03 -187.07,248.58 -319.87,480.69 -278.79,901.6 -281.17,1464.09 -0.31,72.6 -0.53,145.2 -0.71,217.8 -0.17,67.03 -7.36,142.37 37.62,179.21 48.85,40.01 109.11,35.52 157.92,-1.17l121.74 -96.08c221.92,-177.88 450.1,-349.47 670.39,-529.79 20.63,-16.88 40.66,-34.02 61.91,-49.26 36.53,-26.2 93.88,-62.45 107.89,-110.31 17.64,-60.31 -31.33,-119.24 -81.76,-126.84 -43.69,-6.58 -383.38,-4.5 -438.3,-0.65 43.42,-306.22 105,-503.62 299.98,-750.37l291.39 -292.35c9.63,-10.62 19.01,-15.36 28.99,-26.59 64.95,-73.1 127.81,-145.68 184.17,-228.38 95.25,-139.78 180.91,-306.17 233.32,-471.14 78.89,-248.27 124.96,-543 83.45,-822.49 -44.76,-301.35 -122.87,-509.19 -274.62,-772.4 -43.08,-74.72 -97.76,-137.2 -149.37,-202.85 -39.78,-50.59 -124,-135.09 -170.03,-177.52 -12.88,-11.87 -15.82,-15.26 -29.86,-30.28 -33.25,-35.59 -120.45,-101.53 -162.32,-129.75 -251.82,-169.73 -528.4,-291.81 -839.4,-333.16 -155.61,-20.7 -295.05,-13.8 -450.43,-17.91 3.21,-2.92 3,-2.91 8.74,-6.35 3.85,-2.31 5.39,-2.94 9.45,-5.01 98.1,-49.92 177.05,-121.98 189.86,-244.56 7.68,-73.51 -3.09,-139.89 -35.25,-194.35 -25.12,-42.53 -46.42,-63.77 -81.1,-94.98 -10.47,-9.42 -19.76,-16.04 -35.31,-25.09 -110.01,-64.07 -283.15,-43.18 -421.25,-43.18l-931.43 0c-135.33,0 -320.94,-19.2 -425.06,44 -155.43,94.35 -212.12,313.19 -77.86,469.25 64.97,75.54 83.85,56.6 137.84,100.12 -149.52,4.04 -317.37,-9.29 -464.39,8.31 -153.67,18.39 -247.72,35.99 -395.27,77.96 -108.49,30.85 -245.17,86.28 -333.76,138.72 -100.13,59.26 -197.52,114.57 -283.76,188.82 -20,17.22 -43.8,34.39 -64.24,51.76 -38.29,32.53 -91.01,77.76 -122.49,113.94l-111.03 125.21c-17.62,23.15 -34.62,47.22 -51.12,69.5 -101.25,136.73 -191.12,294.76 -251.32,457.58 -44.91,121.49 -78.27,239.51 -98.97,378.62 -42.39,284.74 -12.25,585.53 67.08,844.97 71.4,233.5 181.79,431.34 329.14,615.92 35.63,44.64 73.93,84 110.61,125.92 55.41,63.33 205.57,184.2 268.37,259.84 107.77,129.82 183.91,221.6 249.66,403.54 27.92,77.25 94.94,314.02 83.14,391.27 -84.48,19.39 -329.56,-13.4 -431.44,4.96 -52.27,9.42 -99.74,61.32 -83.8,128.34 9.43,39.68 77.46,85.17 107.93,110.29 18.96,15.63 39.1,30.42 59.83,46.85l121.36 96.26c10.79,8.29 19.16,15.48 31.21,24.54l153.65 119.84c10.3,8.38 16.22,14.57 27.81,23.04l397.52 311.55c67.74,51.1 128.94,119.09 217.06,50.8 50.51,-39.15 39.59,-101.99 39.53,-178.12 -0.25,-291.35 11.47,-799.46 -29.28,-1059.07 -14.27,-90.9 -64.23,-264.93 -99.2,-336.67 -49.5,-101.55 -93.36,-196.82 -152.3,-283.33l-111.81 -156.94c-9.02,-11.38 -17.17,-19.02 -25.8,-29.7 -97.19,-120.37 -211.54,-223.9 -325.38,-328.01 -19.8,-18.1 -38.45,-34.97 -56.68,-54.63 -185.88,-200.37 -316.37,-479.99 -331.25,-758.09 -10.99,-205.17 12.11,-376.42 85.96,-560.57 23.91,-59.6 43.62,-92.36 72.08,-145.79 48.31,-90.7 119.19,-173.36 187.76,-247.82 25.61,-27.8 59.18,-51.31 86.87,-75.33 42.84,-37.16 21.77,-24.73 88.04,-73.99 22.94,-17.05 39.88,-31 64.49,-46.84 171.41,-110.26 431.21,-200.18 681.43,-189.98 163.9,6.68 290.75,44.13 412.26,129.97 65.82,46.5 116.78,96.37 169.37,159.53 68.6,82.4 119.86,180.69 144.29,291.5 29.29,132.91 19.92,275.7 19.92,415.41 0,134.86 6.22,2565.63 -1.76,2612.01 -55.34,13.88 -182.6,-7.03 -249.31,5.29 -59.64,11.02 -117.26,72.98 -102.36,146.14 9.93,48.81 169.06,239.15 214.89,299.03 32.94,43.05 334.73,445.96 362.85,471.5 12.76,11.59 19.17,22.4 34.33,30.68 29.84,16.31 62.08,28.57 101.08,24.16 74.44,-8.42 111.8,-66.18 145.45,-108.78l111.18 -143.63c37.01,-49.2 72.2,-94.11 110.38,-144.54l139.28 -180.4c48.83,-58.36 93.35,-122.83 140.5,-183.89 46.38,-60.06 41.8,-127.97 -10.37,-181.34 -26.14,-26.75 -51.18,-31.68 -96.9,-32.17 -86.43,-0.94 -175.31,-1.08 -261.68,0.16z"/>
   <circle class="fil1" cx="4334.93" cy="1317.09" r="424.74"/>
  </g>
 </g>
</svg>
